<svg xmlns="http://www.w3.org/2000/svg" viewBox="0 0 100 100" width="100%" height="100%">
  <!-- Background soft circle -->
  <circle cx="50" cy="50" r="46" fill="#FEE2E2" opacity="0.3"/>
  <circle cx="50" cy="50" r="46" stroke="#EF4444" strokeWidth="1.5" strokeDasharray="3 3" fill="none" opacity="0.4"/>
  <!-- Car silhouette shape flat vector -->
  <path d="M22 62 Q20 62 20 60 L20 54 Q20 50 25 48 L35 44 C38 34 42 30 52 30 Q65 30 68 44 L78 47 Q82 48 82 54 L82 60 Q82 62 80 62 Z" fill="#EF4444"/>
  <rect x="24" y="52" width="52" height="6" fill="#FCA5A5" rx="1"/>
  <circle cx="34" cy="65" r="7" fill="#1E293B" stroke="#FCA5A5" strokeWidth="2" />
  <circle cx="34" cy="65" r="2.5" fill="#FFFFFF" />
  <circle cx="66" cy="65" r="7" fill="#1E293B" stroke="#FCA5A5" strokeWidth="2" />
  <circle cx="66" cy="65" r="2.5" fill="#FFFFFF" />
  <!-- Smoke clouds from car -->
  <circle cx="12" cy="58" r="4.5" fill="#64748B" opacity="0.6"/>
  <circle cx="8" cy="54" r="3.5" fill="#94A3B8" opacity="0.5"/>
</svg>
